<?xml version="1.0" encoding="utf-8"?>
<!-- Generator: Adobe Illustrator 27.0.1, SVG Export Plug-In . SVG Version: 6.00 Build 0)  -->
<svg version="1.1" id="Calque_1" xmlns="http://www.w3.org/2000/svg" xmlns:xlink="http://www.w3.org/1999/xlink" x="0px" y="0px"
	 viewBox="0 0 71.9 71.9" style="enable-background:new 0 0 71.9 71.9;" xml:space="preserve">
<style type="text/css">
	.st0{fill:#312E33;}
</style>
<g>
	<g>
		<path class="st0" d="M70.9,43.2H56.8c-8.5,0.1-9.9,6.6-10.1,8.9c0,0.2,0,0.4,0,0.6h12.6c-2.6,4.2-7.3,7-12.6,7
			c-8.2,0-14.8-6.6-14.8-14.8S38.4,30,46.6,30c4.1,0,8,1.7,10.6,4.6h11.4c-4.1-8.6-12.6-14.1-22.1-14.1c-13.4,0-24.4,10.9-24.4,24.4
			s10.9,24.4,24.4,24.4S71,58.3,71,44.8C71,44.3,71,43.7,70.9,43.2z"/>
		<path class="st0" d="M58.5,18.7c-4.2-2-8.4-2.9-12.3-3c-3.2-3.6-6.4-3.5-8.3-3.5c-1.4,0-2.7,0-4.1,0C28,12.2,15.7,0.5,15.7,0.5
			s-2.3,4.8,0.1,10.9c-1.9-0.2-3.7-0.7-5.4-1.1c1.9,7.4,8,12.8,15.8,13.6c-0.2,0.2-0.5,0.5-0.7,0.7c-8.7-1-17.3-7.4-19.2-15.7
			C4.7,8.2,2.9,7.5,1,6.5c0,3.2,1.3,18.6,23.4,19.4c-0.2,0.2-0.4,0.6-0.7,0.8c-0.6,0-1.2,0.1-1.8,0.1c-1.9,0-3.7-0.2-5.4-0.5
			c-0.1,1.6-0.1,5.7,2.7,9.1c-0.9,2.9-1.4,5.8-1.2,8.8c0,0.5,0.5,0.6,0.5,0.6c0.2-8.7,4.4-16.4,10.7-21.6c0.1-0.1,0.2-0.1,0.2-0.2
			c0.2-0.2,0.5-0.4,0.8-0.6c0.1-0.1,0.2-0.2,0.3-0.2c0.2-0.2,0.5-0.3,0.7-0.5c0.2-0.1,0.2-0.2,0.4-0.2c0.2-0.2,0.5-0.3,0.7-0.4
			c0.2-0.1,0.3-0.2,0.5-0.3c0.2-0.2,0.5-0.2,0.7-0.4c0.2-0.1,0.3-0.2,0.6-0.3c0.2-0.1,0.5-0.2,0.7-0.3c0.2-0.1,0.4-0.2,0.6-0.2
			c0.2-0.1,0.4-0.2,0.7-0.3c0.2-0.1,0.4-0.2,0.7-0.2s0.4-0.2,0.7-0.2s0.4-0.2,0.7-0.2s0.4-0.2,0.7-0.2c0.2-0.1,0.5-0.2,0.7-0.2
			c0.2-0.1,0.4-0.2,0.7-0.2c0.2-0.1,0.5-0.1,0.7-0.2c0.2-0.1,0.4-0.1,0.7-0.2c0.2-0.1,0.5-0.1,0.8-0.2c0.2,0,0.4-0.1,0.7-0.1
			c0.2-0.1,0.6-0.1,0.8-0.1c0.2,0,0.4-0.1,0.6-0.1c0.3,0,0.7-0.1,1-0.1c0.2,0,0.3,0,0.5,0c0.5,0,1,0,1.5,0c4.1,0,8,0.8,11.6,2.4
			C58.8,19.3,58.9,18.9,58.5,18.7z"/>
	</g>
</g>
</svg>
