<?xml version="1.0" encoding="utf-8"?>
<!-- Generator: Adobe Illustrator 27.0.1, SVG Export Plug-In . SVG Version: 6.00 Build 0)  -->
<svg version="1.1" id="Calque_1" xmlns="http://www.w3.org/2000/svg" xmlns:xlink="http://www.w3.org/1999/xlink" x="0px" y="0px"
	 viewBox="0 0 297.7 95.1" style="enable-background:new 0 0 297.7 95.1;" xml:space="preserve">
<style type="text/css">
	.st0{fill:#322E34;}
	.st1{fill:#FF256C;}
</style>
<g>
	<path class="st0" d="M103.4,65.3c0-4.4,3.3-7.5,7.6-7.5c3.8,0,6.2,2.4,6.9,4.8l-3.3,1.4c-0.4-1.7-1.6-2.8-3.6-2.8
		c-2.3,0-3.9,1.7-3.9,4.2c0,2.5,1.6,4.2,3.9,4.2c2,0,3.2-1.1,3.6-2.8l3.3,1.4c-0.8,2.5-3.1,4.8-6.9,4.8
		C106.6,72.8,103.4,69.7,103.4,65.3z"/>
	<path class="st0" d="M118.8,65.3c0-4.3,3.4-7.5,7.7-7.5s7.6,3.3,7.6,7.5s-3.3,7.5-7.6,7.5C122.1,72.8,118.8,69.6,118.8,65.3z
		 M130.5,65.3c0-2.4-1.6-4.2-4.1-4.2s-4.1,1.8-4.1,4.2c0,2.5,1.7,4.2,4.1,4.2C128.9,69.5,130.5,67.8,130.5,65.3z"/>
	<path class="st0" d="M148.7,72.6l-0.7-9.4l-2.8,8.9h-2.9l-2.8-8.9l-0.7,9.4h-3.2l1.1-14.5h4.1l3.1,9.7l3.1-9.7h4.1l1.1,14.5H148.7z
		"/>
	<path class="st0" d="M166.9,72.6l-0.7-9.4l-2.8,8.9h-2.9l-2.8-8.9l-0.7,9.4h-3.2l1.1-14.5h4.1l3.1,9.7l3.1-9.7h4.1l1.1,14.5H166.9z
		"/>
	<path class="st0" d="M182.3,69.5v3h-10.1V58h9.9v3h-6.5v2.6h5.7v3h-5.7v2.8L182.3,69.5L182.3,69.5z"/>
	<path class="st0" d="M200.2,58v8.8c0,3.3-2,6-6,6s-6-2.7-6-6V58h3.5v8.8c0,1.6,0.8,2.7,2.5,2.7s2.5-1.1,2.5-2.7V58H200.2z"/>
	<path class="st0" d="M214.7,58v14.6h-2.9l-5.6-8.5v8.5h-3.5V58.1h2.9l5.6,8.5v-8.5L214.7,58L214.7,58z"/>
	<path class="st0" d="M227.3,69.5v3h-10.1V58h9.9v3h-6.5v2.6h5.7v3h-5.7v2.8L227.3,69.5L227.3,69.5z"/>
	<path class="st0" d="M233.4,58h3.5v14.6h-3.5V58z"/>
	<path class="st0" d="M252.7,65.3c0,4.5-3.1,7.3-7.5,7.3h-5.8V58.1h5.8C249.6,58,252.7,60.8,252.7,65.3z M249.2,65.3
		c0-2.7-1.6-4.2-4.1-4.2h-2.2v8.3h2.2C247.5,69.5,249.2,68,249.2,65.3z"/>
	<path class="st0" d="M264.8,69.5v3h-10.1V58h9.9v3h-6.5v2.6h5.7v3h-5.7v2.8L264.8,69.5L264.8,69.5z M257,57l-0.8-2.5l6.4-2.2
		l0.9,2.8L257,57z"/>
	<path class="st0" d="M276.9,69.5v3h-10.1V58h9.9v3h-6.5v2.6h5.7v3h-5.7v2.8L276.9,69.5L276.9,69.5z"/>
	<path class="st0" d="M278.3,70.9c0-1.1,0.8-1.9,1.9-1.9s1.9,0.8,1.9,1.9s-0.8,1.9-1.9,1.9C279.1,72.8,278.3,72,278.3,70.9z"/>
	<path class="st0" d="M283.8,70.9c0-1.1,0.8-1.9,1.9-1.9s1.9,0.8,1.9,1.9s-0.8,1.9-1.9,1.9C284.7,72.8,283.8,72,283.8,70.9z"/>
	<path class="st0" d="M289.4,70.9c0-1.1,0.8-1.9,1.9-1.9s1.9,0.8,1.9,1.9s-0.8,1.9-1.9,1.9C290.2,72.8,289.4,72,289.4,70.9z"/>
</g>
<g>
	<path class="st1" d="M104,86.9l1.6-0.6c0.2,0.8,0.8,1.2,1.6,1.2c0.7,0,1.1-0.3,1.1-0.8c0-1.6-4-0.8-4-3.6c0-1.4,1-2.3,2.8-2.3
		c1.5,0,2.5,0.7,2.8,1.8l-1.6,0.6c-0.2-0.7-0.6-1-1.3-1s-1,0.3-1,0.7c0,1.5,4,0.7,4,3.7c0,1.4-1.1,2.3-3,2.3
		C105.5,89,104.4,88.2,104,86.9z"/>
	<path class="st1" d="M116.9,82.4h-2.3v6.4h-1.7v-6.4h-2.3v-1.5h6.4L116.9,82.4L116.9,82.4z"/>
	<path class="st1" d="M124.2,80.9v4.8c0,1.7-1,3.2-3.2,3.2c-2.1,0-3.2-1.5-3.2-3.2v-4.8h1.7v4.8c0,0.9,0.5,1.6,1.5,1.6
		s1.5-0.7,1.5-1.6v-4.8H124.2z"/>
	<path class="st1" d="M132.9,84.9c0,2.4-1.7,4-4,4h-3.1V81h3.1C131.2,80.9,132.9,82.5,132.9,84.9z M131.2,84.9c0-1.6-1-2.5-2.4-2.5
		h-1.3v4.9h1.3C130.2,87.3,131.2,86.5,131.2,84.9z"/>
	<path class="st1" d="M134.2,80.9h1.7v7.9h-1.7V80.9z"/>
	<path class="st1" d="M137.1,84.9c0-2.3,1.8-4.1,4.1-4.1s4.1,1.8,4.1,4.1c0,2.3-1.8,4.1-4.1,4.1C138.9,89,137.1,87.2,137.1,84.9z
		 M143.6,84.9c0-1.4-0.9-2.5-2.4-2.5s-2.4,1-2.4,2.5s1,2.5,2.4,2.5C142.7,87.4,143.6,86.3,143.6,84.9z"/>
	<path class="st1" d="M156.1,84.9c0,2.4-1.7,4-4,4H149V81h3.1C154.5,80.9,156.1,82.5,156.1,84.9z M154.4,84.9c0-1.6-1-2.5-2.4-2.5
		h-1.3v4.9h1.3C153.5,87.3,154.4,86.5,154.4,84.9z"/>
	<path class="st1" d="M162.8,87.4v1.5h-5.4V81h5.3v1.5h-3.6v1.7h3.2v1.5h-3.2v1.8h3.7V87.4z"/>
	<path class="st1" d="M166.2,84.9c0-2.4,1.7-4.1,4.1-4.1c2,0,3.3,1.2,3.7,2.6l-1.6,0.7c-0.3-1-1-1.6-2.1-1.6c-1.4,0-2.3,1-2.3,2.5
		c0,1.5,1,2.5,2.3,2.5c1.2,0,1.8-0.6,2.1-1.6l1.6,0.7c-0.4,1.4-1.7,2.6-3.7,2.6C167.9,89,166.2,87.3,166.2,84.9z"/>
	<path class="st1" d="M174.6,84.9c0-2.3,1.8-4.1,4.1-4.1s4.1,1.8,4.1,4.1c0,2.3-1.8,4.1-4.1,4.1C176.4,89,174.6,87.2,174.6,84.9z
		 M181.2,84.9c0-1.4-0.9-2.5-2.4-2.5s-2.4,1-2.4,2.5s1,2.5,2.4,2.5S181.2,86.3,181.2,84.9z"/>
	<path class="st1" d="M191.1,88.8l-0.4-5.4l-1.7,5.2h-1.4l-1.7-5.2l-0.4,5.5h-1.6l0.6-7.9h1.6l0,0h0.4l1.8,5.6l1.8-5.6h0.4l0,0h1.6
		l0.6,7.9h-1.6V88.8z"/>
	<path class="st1" d="M201,88.8l-0.4-5.4l-1.7,5.2h-1.4l-1.7-5.2l-0.4,5.5h-1.6l0.6-7.9h1.6l0,0h0.4l1.8,5.6L200,81h0.4l0,0h1.6
		l0.6,7.9H201V88.8z"/>
	<path class="st1" d="M210.2,80.9v4.8c0,1.7-1,3.2-3.2,3.2c-2.1,0-3.2-1.5-3.2-3.2v-4.8h1.7v4.8c0,0.9,0.5,1.6,1.5,1.6
		s1.5-0.7,1.5-1.6v-4.8H210.2z"/>
	<path class="st1" d="M218.1,80.9v7.9h-1.4l-3.3-5v5h-1.7v-7.9h1.4l3.3,5v-5L218.1,80.9L218.1,80.9z"/>
	<path class="st1" d="M219.8,80.9h1.7v7.9h-1.7V80.9z"/>
	<path class="st1" d="M222.7,84.9c0-2.4,1.7-4.1,4.1-4.1c2,0,3.3,1.2,3.7,2.6l-1.6,0.7c-0.3-1-1-1.6-2.1-1.6c-1.4,0-2.3,1-2.3,2.5
		c0,1.5,1,2.5,2.3,2.5c1.2,0,1.8-0.6,2.1-1.6l1.6,0.7c-0.4,1.4-1.7,2.6-3.7,2.6C224.5,89,222.7,87.3,222.7,84.9z"/>
	<path class="st1" d="M235.9,87.1H233l-0.6,1.7h-1.7l2.7-7.9h2.1l2.7,7.9h-1.7L235.9,87.1z M235.5,85.8l-1-3.1l-1,3.1H235.5z"/>
	<path class="st1" d="M243.9,82.4h-2.3v6.4h-1.7v-6.4h-2.3v-1.5h6.4v1.5H243.9z"/>
	<path class="st1" d="M245,80.9h1.7v7.9H245V80.9z"/>
	<path class="st1" d="M247.9,84.9c0-2.3,1.8-4.1,4.1-4.1c2.3,0,4.1,1.8,4.1,4.1c0,2.3-1.8,4.1-4.1,4.1
		C249.7,89,247.9,87.2,247.9,84.9z M254.5,84.9c0-1.4-0.9-2.5-2.4-2.5s-2.4,1-2.4,2.5s1,2.5,2.4,2.5S254.5,86.3,254.5,84.9z"/>
	<path class="st1" d="M263.9,80.9v7.9h-1.4l-3.3-5v5h-1.7v-7.9h1.4l3.3,5v-5L263.9,80.9L263.9,80.9z"/>
</g>
<g>
	<g>
		<path class="st0" d="M89.1,57.6H72c-10.3,0.1-11.9,8-12.2,10.7c0,0.3,0,0.5,0,0.7H75c-3.1,5.1-8.8,8.5-15.2,8.5
			c-9.9,0-17.9-8-17.9-17.9s8-17.9,17.9-17.9c5,0,9.6,2.1,12.8,5.5h13.8c-4.9-10.4-15.2-17-26.6-17c-16.2,0-29.4,13.2-29.4,29.4
			S43.6,89,59.8,89s29.4-13.2,29.4-29.4C89.2,59,89.1,58.3,89.1,57.6z"/>
		<path class="st0" d="M74.1,28.1C69,25.7,64,24.6,59.3,24.5c-3.9-4.4-7.7-4.2-10-4.2c-1.7,0-3.3,0-4.9,0
			c-7.1,0-21.9-14.1-21.9-14.1s-2.8,5.8,0.1,13.1c-2.3-0.3-4.5-0.8-6.5-1.3c2.3,8.9,9.6,15.4,19,16.4c-0.3,0.3-0.6,0.6-0.8,0.8
			C23.8,34,13.4,26.3,11.2,16.3c-2-0.8-4.1-1.7-6.4-2.9c0,3.8,1.6,22.4,28.2,23.4c-0.3,0.3-0.5,0.7-0.8,1c-0.7,0-1.5,0.1-2.2,0.1
			c-2.3,0-4.5-0.2-6.5-0.6c-0.1,1.9-0.1,6.9,3.2,11c-1.1,3.5-1.7,7-1.5,10.6c0,0.6,0.6,0.7,0.6,0.7c0.3-10.5,5.3-19.8,12.9-26
			c0.1-0.1,0.2-0.1,0.2-0.2c0.3-0.3,0.6-0.5,1-0.7c0.1-0.1,0.3-0.2,0.4-0.3c0.3-0.2,0.6-0.4,0.9-0.6c0.2-0.1,0.3-0.2,0.5-0.3
			c0.3-0.2,0.6-0.4,0.9-0.5c0.2-0.1,0.4-0.2,0.6-0.4c0.3-0.2,0.6-0.3,0.9-0.5c0.2-0.1,0.4-0.2,0.7-0.4c0.3-0.1,0.6-0.3,0.8-0.4
			c0.2-0.1,0.5-0.2,0.7-0.3c0.3-0.1,0.5-0.2,0.8-0.4c0.3-0.1,0.5-0.2,0.8-0.3c0.3-0.1,0.5-0.2,0.8-0.3c0.3-0.1,0.5-0.2,0.8-0.3
			c0.3-0.1,0.5-0.2,0.8-0.3c0.3-0.1,0.6-0.2,0.9-0.3c0.3-0.1,0.5-0.2,0.8-0.2c0.3-0.1,0.6-0.1,0.9-0.2s0.5-0.1,0.8-0.2
			s0.6-0.1,1-0.2c0.3,0,0.5-0.1,0.8-0.1c0.3-0.1,0.7-0.1,1-0.1c0.2,0,0.5-0.1,0.7-0.1c0.4,0,0.8-0.1,1.2-0.1c0.2,0,0.4,0,0.6,0
			c0.6,0,1.2,0,1.8,0c5,0,9.7,1,14,2.9C74.4,28.7,74.5,28.3,74.1,28.1z"/>
	</g>
</g>
</svg>
