<?xml version="1.0" encoding="utf-8"?>
<!-- Generator: Adobe Illustrator 27.0.1, SVG Export Plug-In . SVG Version: 6.00 Build 0)  -->
<svg version="1.1" id="Calque_1" xmlns="http://www.w3.org/2000/svg" xmlns:xlink="http://www.w3.org/1999/xlink" x="0px" y="0px"
	 viewBox="0 0 127.5 127.1" style="enable-background:new 0 0 127.5 127.1;" xml:space="preserve">
<style type="text/css">
	.st0{fill:#312E33;}
	.st1{fill:#FF256C;}
</style>
<g>
	<g>
		<path class="st0" d="M6.7,106c0-2.6,2-4.5,4.5-4.5c2.3,0,3.7,1.4,4.1,2.9l-2,0.8c-0.3-1-1-1.7-2.2-1.7c-1.4,0-2.4,1-2.4,2.6
			c0,1.5,1,2.5,2.3,2.5c1.2,0,1.9-0.7,2.2-1.7l2,0.8c-0.5,1.5-1.9,2.9-4.2,2.9C8.7,110.5,6.7,108.6,6.7,106z"/>
		<path class="st0" d="M16,106c0-2.6,2-4.5,4.6-4.5s4.6,2,4.6,4.5s-2,4.5-4.6,4.5S16,108.5,16,106z M23.1,106c0-1.5-0.9-2.5-2.4-2.5
			s-2.5,1.1-2.5,2.5c0,1.5,1,2.6,2.5,2.6C22.1,108.5,23.1,107.5,23.1,106z"/>
		<path class="st0" d="M34,110.4l-0.4-5.6l-1.7,5.4h-1.7l-1.7-5.4l-0.4,5.7h-1.9l0.6-8.7h2.4l1.8,5.8l1.8-5.8h2.4l0.7,8.7H34V110.4z
			"/>
		<path class="st0" d="M44.9,110.4l-0.4-5.6l-1.7,5.4h-1.7l-1.7-5.4l-0.4,5.7h-1.9l0.6-8.7h2.4l1.8,5.8l1.8-5.8h2.4l0.7,8.7h-1.9
			V110.4z"/>
		<path class="st0" d="M54.2,108.5v1.8h-6v-8.7h6v1.8h-3.9v1.6h3.4v1.8h-3.4v1.7H54.2z"/>
		<path class="st0" d="M65,101.6v5.3c0,2-1.2,3.6-3.6,3.6s-3.6-1.6-3.6-3.6v-5.3h2.1v5.3c0,1,0.5,1.6,1.5,1.6s1.5-0.7,1.5-1.6v-5.3
			H65z"/>
		<path class="st0" d="M73.6,101.6v8.7h-1.7l-3.4-5.1v5.1h-2.1v-8.7h1.7l3.4,5.1v-5.1H73.6z"/>
		<path class="st0" d="M81.2,108.5v1.8h-6v-8.7h6v1.8h-3.9v1.6h3.4v1.8h-3.4v1.7H81.2z"/>
		<path class="st0" d="M84.9,101.6H87v8.7h-2.1V101.6z"/>
		<path class="st0" d="M96.5,106c0,2.7-1.8,4.4-4.5,4.4h-3.5v-8.8H92C94.7,101.6,96.5,103.3,96.5,106z M94.4,106
			c0-1.6-1-2.5-2.4-2.5h-1.3v5H92C93.4,108.5,94.4,107.6,94.4,106z"/>
		<path class="st0" d="M103.7,108.5v1.8h-6v-8.7h6v1.8h-3.9v1.6h3.4v1.8h-3.4v1.7H103.7z M99.1,101l-0.5-1.5l3.8-1.3l0.5,1.7
			L99.1,101z"/>
		<path class="st0" d="M111,108.5v1.8h-6v-8.7h6v1.8h-3.9v1.6h3.4v1.8h-3.4v1.7H111z"/>
		<path class="st0" d="M111.9,109.4c0-0.7,0.5-1.2,1.1-1.2c0.7,0,1.1,0.5,1.1,1.2c0,0.6-0.5,1.1-1.1,1.1
			C112.4,110.5,111.9,110,111.9,109.4z"/>
		<path class="st0" d="M115.2,109.4c0-0.7,0.5-1.2,1.1-1.2c0.7,0,1.1,0.5,1.1,1.2c0,0.6-0.5,1.1-1.1,1.1
			C115.7,110.5,115.2,110,115.2,109.4z"/>
		<path class="st0" d="M118.5,109.4c0-0.7,0.5-1.2,1.1-1.2c0.7,0,1.1,0.5,1.1,1.2c0,0.6-0.5,1.1-1.1,1.1
			C119,110.5,118.5,110,118.5,109.4z"/>
	</g>
	<g>
		<path class="st1" d="M16,119l0.9-0.4c0.1,0.5,0.5,0.7,1,0.7c0.4,0,0.7-0.2,0.7-0.5c0-0.9-2.4-0.5-2.4-2.1c0-0.8,0.6-1.4,1.7-1.4
			c0.9,0,1.5,0.4,1.7,1.1l-0.9,0.4c-0.1-0.4-0.4-0.6-0.8-0.6c-0.4,0-0.6,0.2-0.6,0.4c0,0.9,2.4,0.4,2.4,2.2c0,0.8-0.7,1.4-1.8,1.4
			C16.9,120.2,16.3,119.8,16,119z"/>
		<path class="st1" d="M23.7,116.3h-1.4v3.8h-1v-3.8h-1.4v-0.9h3.8C23.7,115.4,23.7,116.3,23.7,116.3z"/>
		<path class="st1" d="M28,115.4v2.9c0,1-0.6,1.9-1.9,1.9c-1.3,0-1.9-0.9-1.9-1.9v-2.9h1v2.9c0,0.6,0.3,1,0.9,1c0.6,0,0.9-0.4,0.9-1
			v-2.9H28z"/>
		<path class="st1" d="M33.2,117.8c0,1.4-1,2.3-2.4,2.3H29v-4.7h1.8C32.2,115.4,33.2,116.4,33.2,117.8z M32.2,117.8
			c0-0.9-0.6-1.5-1.4-1.5H30v2.9h0.8C31.6,119.2,32.2,118.7,32.2,117.8z"/>
		<path class="st1" d="M33.9,115.4h1v4.7h-1V115.4z"/>
		<path class="st1" d="M35.7,117.8c0-1.4,1.1-2.4,2.5-2.4s2.4,1.1,2.4,2.4c0,1.4-1.1,2.4-2.4,2.4C36.8,120.2,35.7,119.2,35.7,117.8z
			 M39.6,117.8c0-0.9-0.6-1.5-1.4-1.5s-1.4,0.6-1.4,1.5s0.6,1.5,1.4,1.5S39.6,118.7,39.6,117.8z"/>
		<path class="st1" d="M47,117.8c0,1.4-1,2.3-2.4,2.3h-1.8v-4.7h1.8C46,115.4,47,116.4,47,117.8z M46,117.8c0-0.9-0.6-1.5-1.4-1.5
			h-0.8v2.9h0.8C45.4,119.2,46,118.7,46,117.8z"/>
		<path class="st1" d="M51,119.3v0.9h-3.2v-4.7h3.1v0.9h-2.1v1h1.9v0.9h-1.9v1.1L51,119.3L51,119.3z"/>
		<path class="st1" d="M53,117.8c0-1.4,1-2.4,2.4-2.4c1.2,0,2,0.7,2.2,1.5l-1,0.4c-0.2-0.6-0.6-1-1.3-1c-0.8,0-1.4,0.6-1.4,1.5
			s0.6,1.5,1.4,1.5c0.7,0,1.1-0.4,1.3-1l1,0.4c-0.3,0.8-1,1.5-2.2,1.5C54,120.2,53,119.2,53,117.8z"/>
		<path class="st1" d="M58,117.8c0-1.4,1.1-2.4,2.5-2.4s2.4,1.1,2.4,2.4c0,1.4-1.1,2.4-2.4,2.4C59.1,120.2,58,119.2,58,117.8z
			 M61.9,117.8c0-0.9-0.6-1.5-1.4-1.5c-0.9,0-1.4,0.6-1.4,1.5s0.6,1.5,1.4,1.5S61.9,118.7,61.9,117.8z"/>
		<path class="st1" d="M67.8,120.1l-0.2-3.2l-1,3.1h-0.8l-1-3.1l-0.2,3.2h-1.1l0.3-4.7h0.9l0,0h0.2l1.1,3.3l1.1-3.3h0.2l0,0h0.9
			l0.3,4.7H67.8z"/>
		<path class="st1" d="M73.6,120.1l-0.2-3.2l-1,3.1h-0.8l-1-3.1l-0.2,3.2h-0.9l0.3-4.7h0.9l0,0h0.2l1.1,3.3l1.1-3.3h0.2l0,0h0.9
			l0.3,4.7H73.6z"/>
		<path class="st1" d="M79.1,115.4v2.9c0,1-0.6,1.9-1.9,1.9s-1.9-0.9-1.9-1.9v-2.9h1v2.9c0,0.6,0.3,1,0.9,1s0.9-0.4,0.9-1v-2.9H79.1
			z"/>
		<path class="st1" d="M83.9,115.4v4.7h-0.8l-2-3v3h-1v-4.7h0.8l2,3v-3H83.9z"/>
		<path class="st1" d="M84.8,115.4h1v4.7h-1V115.4z"/>
		<path class="st1" d="M86.6,117.8c0-1.4,1-2.4,2.4-2.4c1.2,0,2,0.7,2.2,1.5l-1,0.4c-0.2-0.6-0.6-1-1.3-1c-0.8,0-1.4,0.6-1.4,1.5
			s0.6,1.5,1.4,1.5c0.7,0,1.1-0.4,1.3-1l1,0.4c-0.3,0.8-1,1.5-2.2,1.5C87.6,120.2,86.6,119.2,86.6,117.8z"/>
		<path class="st1" d="M94.4,119.1h-1.7l-0.3,1h-1l1.6-4.7h1.2l1.6,4.7h-1L94.4,119.1z M94.1,118.3l-0.6-1.8l-0.6,1.8H94.1z"/>
		<path class="st1" d="M99.2,116.3h-1.4v3.8h-1v-3.8h-1.4v-0.9h3.8V116.3z"/>
		<path class="st1" d="M99.8,115.4h1v4.7h-1V115.4z"/>
		<path class="st1" d="M101.6,117.8c0-1.4,1.1-2.4,2.5-2.4s2.4,1.1,2.4,2.4c0,1.4-1.1,2.4-2.4,2.4
			C102.6,120.2,101.6,119.2,101.6,117.8z M105.4,117.8c0-0.9-0.6-1.5-1.4-1.5c-0.9,0-1.4,0.6-1.4,1.5s0.6,1.5,1.4,1.5
			S105.4,118.7,105.4,117.8z"/>
		<path class="st1" d="M111,115.4v4.7h-0.8l-2-3v3h-1v-4.7h0.8l2,3v-3H111z"/>
	</g>
	<g>
		<g>
			<path class="st0" d="M92,58.2H74.9c-10.3,0.1-11.9,8-12.2,10.7c0,0.3,0,0.5,0,0.7h15.2c-3.1,5.1-8.8,8.5-15.2,8.5
				c-9.9,0-17.9-8-17.9-17.9s8-17.9,17.9-17.9c5,0,9.6,2.1,12.8,5.5h13.8c-4.9-10.4-15.2-17-26.6-17c-16.2,0-29.4,13.2-29.4,29.4
				s13.2,29.4,29.4,29.4s29.4-13.2,29.4-29.4C92.1,59.6,92.1,58.9,92,58.2z"/>
			<path class="st0" d="M77,28.7c-5.1-2.4-10.1-3.5-14.8-3.6c-3.9-4.4-7.7-4.2-10-4.2c-1.7,0-3.3,0-4.9,0
				c-7.1,0-21.9-14.1-21.9-14.1s-2.8,5.8,0.1,13.1c-2.3-0.3-4.5-0.8-6.5-1.3C21.3,27.5,28.6,34,38,35c-0.3,0.3-0.6,0.6-0.8,0.8
				c-10.5-1.2-20.9-8.9-23.1-18.9c-2-0.8-4.1-1.7-6.4-2.9c0,3.8,1.6,22.4,28.2,23.4c-0.3,0.3-0.5,0.7-0.8,1c-0.7,0-1.5,0.1-2.2,0.1
				c-2.3,0-4.5-0.2-6.5-0.6c-0.1,1.9-0.1,6.9,3.2,11c-1.1,3.5-1.7,7-1.5,10.6c0,0.6,0.6,0.7,0.6,0.7c0.3-10.5,5.3-19.8,12.9-26
				c0.1-0.1,0.2-0.1,0.2-0.2c0.3-0.3,0.6-0.5,1-0.7c0.1-0.1,0.3-0.2,0.4-0.3c0.3-0.2,0.6-0.4,0.9-0.6c0.2-0.1,0.3-0.2,0.5-0.3
				c0.3-0.2,0.6-0.4,0.9-0.5c0.2-0.1,0.4-0.2,0.6-0.4c0.3-0.2,0.6-0.3,0.9-0.5c0.2-0.1,0.4-0.2,0.7-0.4c0.3-0.1,0.6-0.3,0.8-0.4
				c0.2-0.1,0.5-0.2,0.7-0.3c0.3-0.1,0.5-0.2,0.8-0.4c0.3-0.1,0.5-0.2,0.8-0.3s0.5-0.2,0.8-0.3s0.5-0.2,0.8-0.3s0.5-0.2,0.8-0.3
				s0.6-0.2,0.9-0.3s0.5-0.2,0.8-0.2c0.3-0.1,0.6-0.1,0.9-0.2c0.3-0.1,0.5-0.1,0.8-0.2c0.3-0.1,0.6-0.1,1-0.2c0.3,0,0.5-0.1,0.8-0.1
				c0.3-0.1,0.7-0.1,1-0.1c0.2,0,0.5-0.1,0.7-0.1c0.4,0,0.8-0.1,1.2-0.1c0.2,0,0.4,0,0.6,0c0.6,0,1.2,0,1.8,0c5,0,9.7,1,14,2.9
				C77.4,29.4,77.5,28.9,77,28.7z"/>
		</g>
	</g>
</g>
</svg>
