<svg version="1.1" xmlns="http://www.w3.org/2000/svg" x="0" y="0" viewBox="0 0 267 93" xml:space="preserve"><path d="M94.8 57.7l-19.2 0c-11.5 0.1-13.4 9-13.6 12 0 0.3 0 0.6 0 0.8h17C73.2 80 60.8 82.9 51.4 77c-9.4-5.8-12.3-18.2-6.5-27.6C50.7 40 63.1 37.1 72.5 43c1.4 0.9 2.7 1.9 3.9 3.1h15.5C84.1 29.5 64.5 22.4 48 30c-16.5 7.7-23.7 27.3-16 43.9s27.3 23.7 43.9 16C87.4 84.5 94.9 72.9 94.9 60 94.9 59.3 94.9 58.5 94.8 57.7zM78 24.6c-5.2-2.5-10.9-3.9-16.6-4.1 -4.4-4.9-8.6-4.7-11.3-4.7 -1.9 0-3.7 0-5.5 0C36.7 15.8 20 0 20 0c-1.9 4.7-1.9 10 0.1 14.7 -2.5-0.3-4.9-0.8-7.3-1.5 2.5 10 11 17.4 21.3 18.5 -0.3 0.3-0.6 0.6-0.9 0.9 -11.8-1.3-23.4-10-26-21.3C5 10.4 2.6 9.4 0 8.1c0 4.3 1.8 25.2 31.6 26.3 -0.3 0.4-0.6 0.7-0.9 1.1 -0.8 0.1-1.7 0.1-2.5 0.1 -2.5 0-4.9-0.2-7.3-0.7 -0.3 4.4 1 8.8 3.6 12.4 -1.3 3.8-1.9 7.9-1.7 11.9 0 0.4 0.3 0.7 0.6 0.8 0.4-11.4 5.6-22 14.4-29.2 0.1-0.1 0.2-0.1 0.3-0.2 0.4-0.3 0.7-0.6 1.1-0.8 0.1-0.1 0.3-0.2 0.4-0.3 0.3-0.2 0.7-0.5 1-0.7 0.2-0.1 0.4-0.3 0.6-0.4 0.3-0.2 0.7-0.4 1-0.6 0.2-0.1 0.4-0.3 0.7-0.4 0.3-0.2 0.6-0.4 1-0.5 0.2-0.1 0.5-0.3 0.7-0.4 0.3-0.2 0.6-0.3 0.9-0.5 0.3-0.1 0.5-0.3 0.8-0.4 0.3-0.1 0.6-0.3 0.9-0.4 0.3-0.1 0.6-0.2 0.9-0.4 0.3-0.1 0.6-0.2 0.9-0.4s0.6-0.2 0.9-0.3 0.6-0.2 0.9-0.3c0.3-0.1 0.6-0.2 1-0.3 0.3-0.1 0.6-0.2 0.9-0.3 0.3-0.1 0.7-0.2 1-0.2 0.3-0.1 0.6-0.1 0.9-0.2 0.4-0.1 0.7-0.1 1.1-0.2 0.3-0.1 0.6-0.1 0.9-0.2 0.4-0.1 0.8-0.1 1.2-0.2 0.3 0 0.5-0.1 0.8-0.1 0.4 0 0.9-0.1 1.3-0.1 0.2 0 0.4 0 0.7 0 0.7 0 1.4-0.1 2-0.1 5.4 0 10.8 1.1 15.7 3.3C78.4 25 78.3 24.7 78 24.6zM107.5 70.4c-2.3-2.4-2.3-6.2 0-8.6 1.1-1.1 2.7-1.7 4.3-1.7 1.2 0 2.5 0.3 3.5 1 1 0.7 1.8 1.7 2.1 2.9h-3.4c-0.4-0.8-1.2-1.3-2.1-1.3 -0.9 0-1.7 0.3-2.3 0.9 -1.1 1.5-1.1 3.5 0 4.9 0.6 0.6 1.4 1 2.3 0.9 0.9 0 1.8-0.5 2.1-1.3h3.4c-0.4 1.2-1.1 2.2-2.1 2.9 -1 0.7-2.2 1.1-3.5 1C110.1 72.1 108.6 71.5 107.5 70.4L107.5 70.4zM120.2 70.4c-2.3-2.4-2.3-6.2 0-8.6 2.4-2.3 6.2-2.3 8.6 0 2.4 2.3 2.4 6.2 0.1 8.5 -1.2 1.2-2.7 1.8-4.4 1.8C122.9 72.1 121.4 71.5 120.2 70.4L120.2 70.4zM126.8 68.5c1.1-1.5 1.1-3.5 0-4.9 -1.3-1.2-3.3-1.2-4.5 0 -1.1 1.5-1.1 3.5 0 4.9C123.5 69.8 125.5 69.8 126.8 68.5L126.8 68.5zM145.7 60.2V72h-2.9v-6.6l-2.7 6.6H138l-2.7-6.6V72h-2.9V60.2h3.3l3.4 8.1 3.4-8.1H145.7L145.7 60.2zM161.5 60.2V72h-2.9v-6.6l-2.7 6.6h-2.1l-2.7-6.6V72h-2.9V60.2h3.3l3.4 8.1 3.4-8.1H161.5L161.5 60.2zM171.1 60.2v2.2h-4.3v2.5h3.8v2.2h-3.8v2.7h4.3V72H164V60.2L171.1 60.2 171.1 60.2zM178.5 67.2v-7h2.9v7c0 0.6 0.1 1.2 0.5 1.6 0.4 0.4 1 0.6 1.5 0.6 0.6 0 1.1-0.2 1.5-0.6 0.4-0.5 0.6-1 0.5-1.6v-7h2.9v7c0 0.9-0.2 1.9-0.7 2.7 -0.4 0.7-1.1 1.3-1.8 1.7 -0.8 0.3-1.6 0.5-2.4 0.5 -1.3 0-2.5-0.4-3.4-1.3C179 69.9 178.5 68.6 178.5 67.2L178.5 67.2zM198.5 60.2h2.9V72h-2.9l-4.8-7.4V72h-2.9V60.2h2.9l4.8 7.4V60.2zM211 60.2v2.2h-4.3v2.5h3.8v2.2h-3.8v2.7h4.3V72h-7.1V60.2L211 60.2 211 60.2zM218.5 72V60.2h2.9V72L218.5 72 218.5 72zM228 60.2c1.7-0.1 3.3 0.5 4.6 1.6 2.3 2.3 2.4 6 0.2 8.3 -0.1 0.1-0.1 0.1-0.2 0.2 -1.3 1.1-2.9 1.7-4.6 1.6h-4.1V60.2L228 60.2 228 60.2zM226.7 69.8h1.3c1 0.1 1.9-0.3 2.6-1 1.3-1.6 1.3-3.8 0-5.4 -0.7-0.7-1.6-1.1-2.6-1h-1.3V69.8zM243.3 60.2v2.2h-4.3v2.5h3.8v2.2h-3.8v2.7h4.3V72h-7.1V60.2L243.3 60.2 243.3 60.2zM237.6 57.6l4-1.9v2.2l-4 1.7V57.6L237.6 57.6zM252.9 60.2v2.2h-4.3v2.5h3.8v2.2h-3.8v2.7h4.3V72h-7.1V60.2L252.9 60.2 252.9 60.2zM108 80c-0.2 0-0.5 0.1-0.7 0.2 -0.2 0.1-0.3 0.4-0.3 0.6 0 0.2 0.1 0.4 0.2 0.6 0.1 0.1 0.3 0.3 0.5 0.3 0.2 0.1 0.4 0.1 0.7 0.2 0.2 0.1 0.5 0.1 0.7 0.2 0.2 0.1 0.5 0.2 0.7 0.3 0.2 0.1 0.4 0.3 0.5 0.5 0.1 0.3 0.2 0.6 0.2 0.8 0 0.5-0.2 1.1-0.7 1.4 -0.5 0.4-1.1 0.6-1.7 0.6 -0.6 0-1.2-0.2-1.7-0.5 -0.4-0.3-0.7-0.9-0.7-1.4h1.4c0 0.5 0.4 0.9 0.9 0.9 0 0 0.1 0 0.1 0 0.3 0 0.5-0.1 0.7-0.2 0.2-0.2 0.3-0.4 0.3-0.6 0-0.3-0.1-0.5-0.4-0.6 -0.3-0.2-0.5-0.3-0.9-0.3 -0.3-0.1-0.7-0.2-1-0.3 -0.3-0.1-0.6-0.3-0.9-0.6 -0.2-0.3-0.4-0.7-0.4-1.1 0-0.6 0.2-1.1 0.7-1.4 0.5-0.4 1.1-0.6 1.7-0.5 0.6 0 1.2 0.1 1.7 0.5 0.4 0.3 0.7 0.9 0.7 1.4h-1.5c0-0.2-0.1-0.4-0.3-0.6C108.5 80.1 108.2 80 108 80zM111.4 80v-1h4.9v1h-1.8v5.6h-1.3V80H111.4zM117.3 83.1V79h1.3v4.1c0 0.4 0.1 0.8 0.3 1 0.3 0.2 0.6 0.4 1 0.3 0.4 0 0.7-0.1 1-0.3 0.2-0.3 0.4-0.7 0.3-1V79h1.3v4.1c0 0.7-0.2 1.4-0.8 1.9 -0.5 0.5-1.2 0.7-1.9 0.7 -0.7 0-1.4-0.2-1.9-0.7C117.6 84.6 117.3 83.8 117.3 83.1L117.3 83.1zM126.3 79c0.9 0 1.9 0.3 2.6 0.9 1.3 1.3 1.3 3.5 0 4.8 -0.7 0.6-1.6 0.9-2.6 0.9h-2.3V79H126.3zM125.4 84.6h0.9c0.6 0 1.2-0.2 1.6-0.6 0.8-1 0.8-2.4 0-3.4 -0.4-0.4-1-0.7-1.6-0.6h-0.9V84.6zM131 85.7V79h1.3v6.7H131zM136.8 85.7c-0.9 0-1.8-0.3-2.4-1 -0.7-0.6-1-1.5-1-2.4 0-0.9 0.3-1.8 1-2.4 1.3-1.4 3.5-1.4 4.9 0s1.4 3.5 0 4.9C138.6 85.4 137.7 85.8 136.8 85.7L136.8 85.7zM138.2 83.9c0.4-0.4 0.6-1 0.6-1.6 0-0.6-0.2-1.1-0.6-1.6 -0.8-0.8-2.1-0.8-2.9 0 -0.4 0.4-0.6 1-0.6 1.6 0 0.6 0.2 1.2 0.6 1.6C136.1 84.7 137.4 84.7 138.2 83.9L138.2 83.9zM146.3 79c0.9 0 1.9 0.3 2.6 0.9 1.3 1.3 1.3 3.5 0 4.8 -0.7 0.6-1.6 0.9-2.6 0.9h-2.3V79H146.3zM145.4 84.6h0.9c0.6 0 1.2-0.2 1.6-0.6 0.8-1 0.8-2.4 0-3.4 -0.4-0.4-1-0.7-1.6-0.6h-0.9V84.6zM154.8 79v1h-2.5v1.7h2.2v1h-2.2v1.8h2.5v1h-3.8V79L154.8 79 154.8 79zM159.6 84.8c-0.7-0.6-1-1.5-1-2.4 0-0.9 0.3-1.8 1-2.4 0.6-0.6 1.5-1 2.4-1 0.7 0 1.4 0.2 1.9 0.6 0.6 0.4 1 0.9 1.2 1.6h-1.6c-0.3-0.6-0.9-0.9-1.5-0.9 -0.6 0-1.1 0.2-1.5 0.6 -0.4 0.4-0.6 1-0.6 1.6 0 0.6 0.2 1.2 0.6 1.6 0.4 0.4 0.9 0.6 1.5 0.6 0.6 0 1.2-0.3 1.5-0.9h1.6c-0.2 0.6-0.6 1.2-1.2 1.5 -0.6 0.4-1.2 0.6-1.9 0.5C161.1 85.8 160.3 85.4 159.6 84.8L159.6 84.8zM169.4 85.7c-1.9 0-3.4-1.6-3.4-3.4 0-1.9 1.6-3.4 3.4-3.4 0.9 0 1.7 0.4 2.3 1 1.3 1.4 1.3 3.5 0 4.9C171.1 85.4 170.3 85.8 169.4 85.7L169.4 85.7zM170.8 83.9c0.4-0.4 0.6-1 0.6-1.6 0-0.6-0.2-1.2-0.6-1.6 -0.8-0.8-2.1-0.8-2.9 0 -0.4 0.4-0.6 1-0.6 1.6 0 0.6 0.2 1.2 0.6 1.6 0.4 0.4 0.9 0.6 1.5 0.6C169.9 84.5 170.4 84.3 170.8 83.9L170.8 83.9zM181 79v6.7h-1.3v-4.2l-1.8 4.2h-1l-1.8-4.2v4.2h-1.3V79h1.5l2.1 4.9 2.1-4.9H181zM189.7 79v6.7h-1.3v-4.2l-1.8 4.2h-1l-1.8-4.2v4.2h-1.3V79h1.5l2.1 4.9 2.1-4.9H189.7zM191.1 83.1V79h1.3v4.1c0 0.4 0.1 0.8 0.3 1 0.6 0.5 1.4 0.5 2 0 0.2-0.3 0.4-0.7 0.3-1V79h1.3v4.1c0 0.7-0.2 1.4-0.8 1.9 -0.5 0.5-1.2 0.7-1.9 0.7 -0.7 0-1.4-0.2-1.9-0.7C191.4 84.6 191.1 83.8 191.1 83.1L191.1 83.1zM202.2 79h1.3v6.7h-1.3l-3-4.6v4.6h-1.3V79h1.3l3 4.6V79zM205 85.7V79h1.3v6.7H205zM208.4 84.8c-0.6-0.6-1-1.5-1-2.4 0-0.9 0.3-1.8 1-2.4 0.6-0.6 1.5-1 2.4-1 0.7 0 1.4 0.2 1.9 0.6 0.6 0.4 1 0.9 1.2 1.6h-1.6c-0.3-0.6-0.9-0.9-1.5-0.9 -0.6 0-1.1 0.2-1.5 0.6 -0.4 0.4-0.6 1-0.6 1.6 0 0.6 0.2 1.2 0.6 1.6 0.4 0.4 0.9 0.6 1.5 0.6 0.6 0 1.2-0.3 1.5-0.9h1.6c-0.2 0.6-0.6 1.2-1.2 1.5 -0.6 0.4-1.2 0.6-1.9 0.5C209.9 85.8 209 85.4 208.4 84.8L208.4 84.8zM219.4 85.7l-0.4-1.3h-2.6l-0.4 1.3h-1.4l2.3-6.7h1.6l2.3 6.7H219.4L219.4 85.7zM216.8 83.4h1.9l-0.9-2.8L216.8 83.4zM221.4 80v-1h4.9v1h-1.8v5.6h-1.3V80H221.4zM227.3 85.7V79h1.3v6.7H227.3zM233.1 85.7c-1.9 0-3.4-1.6-3.4-3.5 0-0.9 0.4-1.7 1-2.4 1.4-1.3 3.5-1.3 4.8 0 1.3 1.4 1.3 3.5 0 4.9C234.9 85.4 234 85.8 233.1 85.7L233.1 85.7zM234.6 83.9c0.4-0.4 0.6-1 0.6-1.6 0-0.6-0.2-1.1-0.6-1.6 -0.8-0.8-2.1-0.8-2.9 0 -0.4 0.4-0.6 1-0.6 1.6 0 0.6 0.2 1.2 0.6 1.6C232.5 84.7 233.8 84.7 234.6 83.9L234.6 83.9zM241.9 79h1.3v6.7h-1.3l-3-4.6v4.6h-1.3V79h1.3l3 4.6V79L241.9 79zM257.6 70.4c0 0.4-0.1 0.8-0.4 1.1 -0.6 0.6-1.6 0.6-2.2 0s-0.6-1.6 0-2.2c0.6-0.6 1.6-0.6 2.2 0C257.5 69.6 257.6 70 257.6 70.4zM262.3 70.4c0 0.9-0.7 1.6-1.5 1.6 0 0 0 0-0.1 0 -0.4 0-0.8-0.2-1.1-0.5 -0.6-0.6-0.6-1.6 0-2.2 0.6-0.6 1.6-0.6 2.2 0C262.2 69.6 262.3 70 262.3 70.4zM267 70.4c0 0.4-0.2 0.8-0.4 1.1 -0.6 0.6-1.6 0.6-2.2 0s-0.6-1.6 0-2.2c0.6-0.6 1.6-0.6 2.2 0C266.9 69.6 267 70 267 70.4L267 70.4z"/></svg>